<svg xmlns="http://www.w3.org/2000/svg" width="88" height="28" viewBox="0 0 88 28" fill="none"><g clip-path="url(#clip0_2114_4564)"><mask id="mask0_2114_4564" style="mask-type:luminance" maskUnits="userSpaceOnUse" x="1" y="1" width="87" height="27"><path d="M1.03418 1.00391H87.9062V27.3109H1.03418V1.00391Z" fill="white"></path></mask><g mask="url(#mask0_2114_4564)"><path fill-rule="evenodd" clip-rule="evenodd" d="M54.9292 21.5769C49.8826 25.3203 42.5624 27.3112 36.2626 27.3112C27.4321 27.3112 19.4799 24.0307 13.4622 18.5696C12.9901 18.1415 13.411 17.5552 13.9804 17.8882C20.4734 21.6862 28.5036 23.9709 36.7948 23.9709C42.3891 23.9709 48.5398 22.8041 54.1961 20.3909C55.0482 20.0283 55.7653 20.9553 54.9292 21.5769Z" fill="#EDEEF4"></path><path fill-rule="evenodd" clip-rule="evenodd" d="M57.0289 19.1671C56.3828 18.3353 52.7614 18.775 51.1334 18.971C50.6395 19.0308 50.564 18.5975 51.0086 18.2832C53.8982 16.2447 58.6327 16.8335 59.1834 17.515C59.7368 18.2048 59.0363 22.9728 56.3291 25.2498C55.9113 25.5989 55.5147 25.4131 55.7022 24.9496C56.3124 23.4203 57.6744 19.9983 57.0289 19.1671ZM51.2473 3.8774V1.89483C51.2473 1.59205 51.475 1.3934 51.7462 1.3934H60.5857C60.8678 1.3934 61.0955 1.59719 61.0955 1.89162V3.59198C61.0955 3.87805 60.8544 4.24898 60.4309 4.8404L55.8544 11.4085C57.5528 11.3673 59.351 11.6238 60.8953 12.4962C61.2427 12.6923 61.3367 12.9848 61.3642 13.2702V15.3865C61.3642 15.6777 61.0469 16.0133 60.7136 15.839C57.9923 14.4074 54.3837 14.2493 51.3752 15.8583C51.0681 16.0216 50.7457 15.6886 50.7457 15.3974V13.3878C50.7457 13.0664 50.7508 12.5155 51.0739 12.025L56.3777 4.37626H51.7603C51.4782 4.37626 51.2505 4.1744 51.2505 3.8774H51.2473ZM19.0112 16.2524H16.3225C16.201 16.247 16.0856 16.1977 15.9973 16.1136C15.9091 16.0295 15.854 15.9163 15.8421 15.7947V1.93083C15.8421 1.65248 16.0756 1.43198 16.3628 1.43198H18.8673C18.9914 1.43582 19.1098 1.48547 19.1998 1.57143C19.2898 1.6574 19.3452 1.77366 19.3554 1.89805V3.70769H19.4065C20.059 1.95783 21.2905 1.14012 22.9454 1.14012C24.6003 1.14012 25.6801 1.95783 26.4343 3.70833C27.0875 1.95783 28.5671 1.14012 30.1478 1.14012C31.2763 1.14012 32.5083 1.60619 33.26 2.65855C34.1115 3.82533 33.9381 5.51926 33.9381 7.00748V15.7535C33.9381 16.0287 33.7046 16.2524 33.4174 16.2524H30.7312C30.6025 16.2473 30.4805 16.1927 30.3907 16.0999C30.3008 16.007 30.2498 15.8831 30.2483 15.7535V8.40312C30.2483 7.82005 30.2969 6.3614 30.1721 5.8079C29.9719 4.87255 29.3693 4.6109 28.5908 4.6109C27.937 4.6109 27.2615 5.04998 26.9851 5.74748C26.7075 6.44819 26.735 7.61498 26.735 8.40312V15.7535C26.735 16.0287 26.5047 16.2524 26.2168 16.2524H23.5307C23.4019 16.2473 23.28 16.1927 23.1901 16.0999C23.1002 16.007 23.0493 15.8831 23.0477 15.7535V8.40312C23.0477 6.85705 23.2947 4.58069 21.3903 4.58069C19.4859 4.58069 19.5319 6.79726 19.5319 8.40312V15.7535C19.5319 16.0287 19.2984 16.2524 19.0112 16.2524ZM68.7029 1.13755C72.694 1.13755 74.8511 4.58069 74.8511 8.95919C74.8511 13.3383 72.4663 16.5468 68.7029 16.5468C64.9402 16.5468 62.6558 13.1037 62.6558 8.81519C62.6558 4.52605 64.8129 1.13755 68.7029 1.13755ZM68.7279 3.9674C66.7441 3.9674 66.6194 6.68026 66.6194 8.37355C66.6194 10.0662 66.5951 13.6842 68.7029 13.6842C70.8114 13.6842 70.8875 10.7669 70.8875 8.98683C70.8875 7.82005 70.8382 6.41862 70.4858 5.30905C70.1845 4.34605 69.5825 3.9674 68.7279 3.9674ZM80.0276 16.2524H77.3498C77.2212 16.2467 77.0997 16.1919 77.0099 16.0992C76.9202 16.0065 76.869 15.8829 76.8668 15.7535L76.8611 1.88133C76.8828 1.62805 77.108 1.42876 77.3767 1.42876H79.8703C79.9811 1.43181 80.0879 1.47141 80.1741 1.54146C80.2603 1.61152 80.3213 1.70813 80.3475 1.8164V3.93783H80.3993C81.1535 2.03948 82.2058 1.13498 84.0616 1.13498C85.2662 1.13498 86.4464 1.57083 87.1981 2.7704C87.9011 3.87998 87.9005 5.74748 87.9005 7.08912V15.8165C87.871 16.0615 87.651 16.2524 87.3855 16.2524H84.6911C84.4416 16.2363 84.2407 16.0531 84.2139 15.8165V8.28869C84.2139 6.77026 84.3904 4.55369 82.5314 4.55369C81.8776 4.55369 81.2757 4.99276 80.9744 5.66326C80.597 6.51119 80.5483 7.35655 80.5483 8.29126V15.7593C80.5435 15.8948 80.486 16.0229 80.3881 16.1162C80.2903 16.2095 80.1599 16.2605 80.0251 16.2582L80.0276 16.2524ZM44.2041 9.63033C44.2041 10.6827 44.2284 11.5602 43.7 12.4955C43.2714 13.256 42.5933 13.7228 41.8385 13.7228C40.8079 13.7228 40.2027 12.932 40.2027 11.762C40.2027 9.46062 42.2562 9.04405 44.2015 9.04405V9.62712L44.2041 9.63033ZM46.9145 16.217C46.7386 16.3778 46.4808 16.3887 46.2799 16.28C45.3875 15.533 45.227 15.1891 44.7382 14.48C43.2631 15.9908 42.2178 16.4433 40.3051 16.4433C38.0431 16.4433 36.282 15.0393 36.282 12.2313C36.282 10.0392 37.4654 8.54519 39.1498 7.8149C40.6096 7.17076 42.647 7.05376 44.2073 6.8789V6.52726C44.2073 5.8844 44.2559 5.12326 43.8785 4.56655C43.5503 4.07155 42.924 3.8639 42.3701 3.8639C41.3446 3.8639 40.433 4.39298 40.2078 5.48583C40.1618 5.72883 39.9859 5.97119 39.7409 5.98212L37.1341 5.69862C36.9146 5.64976 36.6703 5.47233 36.7323 5.13419C37.3324 1.95848 40.1867 0.998047 42.7449 0.998047C44.0525 0.998047 45.7643 1.34969 46.7955 2.34226C48.1031 3.56948 47.9784 5.20812 47.9784 6.99333V11.2034C47.9784 12.4711 48.5016 13.0246 48.9929 13.706C49.1637 13.9516 49.204 14.2435 48.9846 14.4235C48.437 14.8863 47.4602 15.7375 46.9228 16.217L46.9145 16.2119V16.217ZM8.9563 9.63033C8.9563 10.6827 8.98061 11.5602 8.45413 12.4955C8.02872 13.256 7.34744 13.7228 6.59322 13.7228C5.56202 13.7228 4.9575 12.932 4.9575 11.762C4.9575 9.46062 7.01095 9.04405 8.9563 9.04405V9.63033ZM11.6667 16.217C11.4902 16.3778 11.2324 16.3887 11.0315 16.28C10.1391 15.533 9.97919 15.1891 9.49045 14.48C8.01465 15.9908 6.97001 16.4433 5.05729 16.4433C2.79529 16.4433 1.03418 15.0393 1.03418 12.232C1.03418 10.0398 2.21764 8.54583 3.90198 7.81555C5.36179 7.1714 7.39925 7.0544 8.9563 6.87955V6.5279C8.9563 5.88505 9.00747 5.1239 8.63069 4.56719C8.30252 4.07219 7.67561 3.86455 7.12226 3.86455C6.09681 3.86455 5.18523 4.39362 4.96005 5.48648C4.914 5.72948 4.73744 5.97183 4.49307 5.98276L1.88883 5.69926C1.66877 5.6504 1.42504 5.47298 1.48709 5.13483C2.08394 1.96362 4.9383 1.00383 7.49969 1.00383C8.80725 1.00383 10.5165 1.35548 11.5503 2.3474C12.8579 3.57526 12.7331 5.21326 12.7331 6.99912V11.2085C12.7331 12.4763 13.2564 13.0298 13.7477 13.7118C13.9185 13.9568 13.9588 14.2486 13.7394 14.4286C13.1911 14.8921 12.215 15.7426 11.6776 16.2222L11.6718 16.217H11.6667Z" fill="#EDEEF4"></path></g></g><defs><clipPath id="clip0_2114_4564"><rect width="87" height="27" fill="white" transform="translate(0.90625 0.5)"></rect></clipPath></defs></svg>