<svg xmlns="http://www.w3.org/2000/svg" width="29" height="34" viewBox="0 0 29 34" fill="none"><g clip-path="url(#clip0_2114_4534)"><path fill-rule="evenodd" clip-rule="evenodd" d="M21.0842 0C21.0842 0 17.9634 0.0144068 15.7181 2.93725C13.7225 5.53739 14.2306 7.76064 14.2306 7.76064C14.2306 7.76064 16.9373 8.22281 19.3184 5.39563C21.5485 2.74881 21.0842 0 21.0842 0ZM16.3061 9.15176C15.5711 9.44451 14.9679 9.68481 14.5153 9.68481C13.9518 9.68481 13.2716 9.42607 12.4818 9.12583C11.3851 8.70803 10.0779 8.21071 8.57403 8.21071C4.59336 8.21071 0.349609 11.6222 0.349609 18.4436C0.349609 25.2666 5.36336 33.7534 9.33294 33.7528C9.95302 33.7528 10.7306 33.4762 11.5887 33.1707C12.6463 32.7944 13.8269 32.3743 14.9884 32.3743C16.0535 32.3743 16.9775 32.7155 17.8893 33.052C18.7777 33.3799 19.6544 33.7032 20.6397 33.7032C24.9855 33.7038 28.2038 24.7566 28.2038 24.7566C28.2038 24.7566 23.6007 22.9961 23.6007 17.8875C23.6007 13.3591 27.2955 11.4926 27.2955 11.4926C27.2955 11.4926 25.4061 8.11678 20.6041 8.11678C18.9066 8.11678 17.4483 8.69708 16.3061 9.15176Z" fill="#EDEEF4"></path></g><defs><clipPath id="clip0_2114_4534"><rect width="28" height="34" fill="white" transform="translate(0.203613)"></rect></clipPath></defs></svg>