<svg xmlns="http://www.w3.org/2000/svg" width="101" height="34" viewBox="0 0 101 34" fill="none"><path d="M11.4697 0.597834C6.26127 1.32731 1.84066 5.35403 0.629733 10.4896C-0.945931 17.0986 3.22666 23.839 10.0545 25.7065C11.7177 26.1734 15.0733 26.1734 16.7511 25.7065C19.173 25.0645 21.2884 23.7223 22.7182 21.9716C23.6373 20.8336 24.6294 18.7619 24.9504 17.3029C25.213 16.092 25.3151 13.2762 25.1109 12.5175L25.0088 12.1236H19.173H13.3372V13.8743V15.6251H17.4806H21.6386L21.551 16.1649C21.0112 19.8123 18.1371 22.2634 14.0229 22.5697C10.3901 22.8469 6.75731 20.8482 5.18165 17.6822C4.35005 16.0336 4.21874 15.4063 4.21874 13.2908C4.21874 11.5254 4.26251 11.2045 4.61266 10.2561C5.67769 7.30904 7.82235 5.23732 10.7111 4.37653C11.9949 3.98261 14.125 3.92426 15.3797 4.23064C16.4447 4.49325 18.0496 5.2665 18.9395 5.93762L19.669 6.49202L20.807 5.2665C21.4343 4.60997 21.945 3.9972 21.945 3.93885C21.945 3.67623 20.1942 2.45071 18.9541 1.83795C16.7511 0.75832 13.804 0.276863 11.4697 0.597834Z" fill="#EDEEF4"></path><path d="M80.6239 13.4513L80.6677 25.5607L82.4184 25.5753L84.1691 25.5898L84.2129 13.4513L84.2421 1.32738H82.4184H80.5947L80.6239 13.4513Z" fill="#EDEEF4"></path><path d="M32.4485 9.92058C27.0358 11.3795 24.6723 17.6822 27.7653 22.4238C28.7719 23.9849 30.1142 25.0062 31.9379 25.619C37.7007 27.5594 43.3322 23.2555 42.8946 17.2445C42.7341 14.9978 41.8733 13.1886 40.3122 11.7735C38.2697 9.93517 35.133 9.1911 32.4485 9.92058ZM36.5627 13.32C39.1888 14.5309 40.1372 18.1491 38.5031 20.7315C36.8837 23.2992 33.0175 23.5327 31.1354 21.1546C29.6765 19.3163 29.6473 16.5151 31.0771 14.6476C32.3464 12.9844 34.6077 12.43 36.5627 13.32Z" fill="#EDEEF4"></path><path d="M51.1235 9.72945C48.5703 10.2255 46.309 11.9471 45.2293 14.2084C42.9096 19.1105 45.6816 24.8151 50.9046 25.9093C52.2031 26.1865 53.1222 26.1865 54.4061 25.9093C58.3015 25.0777 60.8984 21.868 60.8984 17.885C60.8838 14.1939 58.7246 11.13 55.369 10.065C54.4207 9.75863 51.9697 9.56896 51.1235 9.72945ZM54.5228 13.2601C55.5003 13.6978 56.5799 14.8504 56.9593 15.8717C57.4115 17.0826 57.324 19.1689 56.7842 20.2194C56.2882 21.1677 55.3252 22.0868 54.4061 22.4953C53.414 22.933 51.9113 22.933 50.8755 22.4807C49.8396 22.043 48.7746 20.8905 48.3661 19.7817C47.9138 18.5999 47.9867 16.6449 48.512 15.5507C49.0955 14.3106 50.2919 13.3331 51.6341 12.9829C52.3344 12.7933 53.7934 12.9392 54.5228 13.2601Z" fill="#EDEEF4"></path><path d="M68.5006 9.86209C67.348 10.1831 66.6185 10.5478 65.7286 11.2189C62.8982 13.3636 61.7165 17.1861 62.8545 20.5125C63.3651 22.0006 63.8757 22.7884 65.0429 23.9118C67.7128 26.4796 71.6957 26.8298 74.1613 24.7143L74.7886 24.1745L74.7303 25.6334C74.6573 27.2674 74.3364 28.2012 73.5485 29.0182C72.8191 29.7914 72.0604 30.1124 70.8057 30.1854C68.9383 30.3021 67.6106 29.631 66.6331 28.0991C66.4143 27.7343 66.1663 27.4425 66.0787 27.4425C65.8307 27.4425 63.0879 28.6535 63.0879 28.7556C63.0879 29.0328 64.3718 30.7981 65.0575 31.4401C66.9687 33.2929 70.0179 33.9641 72.8628 33.1762C75.4744 32.4613 77.2397 30.5209 77.9254 27.6176C78.1588 26.6109 78.188 25.6918 78.188 18.324V10.1539L76.481 10.1101L74.7595 10.0663V10.7521V11.4378L74.2926 11.0438C74.03 10.825 73.3881 10.4457 72.8774 10.1976C72.0896 9.81832 71.754 9.74537 70.6161 9.7016C69.7261 9.65783 69.0258 9.71619 68.5006 9.86209ZM71.7832 13.0718C74.3801 13.845 75.737 17.0985 74.6428 19.9727C74.2051 21.1106 73.5631 21.8255 72.4689 22.3654C71.6665 22.7593 71.3455 22.8322 70.5431 22.8322C67.6398 22.803 65.5389 19.9727 66.1517 16.8943C66.531 14.9247 67.6544 13.6116 69.4343 13.0572C70.2221 12.8092 70.9224 12.8092 71.7832 13.0718Z" fill="#EDEEF4"></path><path d="M91.4353 9.91944C90.1952 10.2696 89.0426 11.0137 88.0505 12.0495C86.008 14.238 85.3223 17.6957 86.3436 20.7157C86.7959 22.058 87.4232 23.0063 88.4882 23.9984C91.3332 26.6391 95.9726 26.8142 98.9781 24.3777C99.9556 23.6045 100.773 22.6999 100.7 22.4811C100.67 22.3935 100.072 21.9558 99.372 21.4744L98.0881 20.6282L97.2565 21.4598C96.6438 22.0726 96.2061 22.3643 95.6225 22.554C94.6742 22.875 93.4487 22.9042 92.5003 22.627C91.7563 22.4227 90.5016 21.416 90.166 20.7449L89.9618 20.3656L95.4182 18.1042C98.73 16.7328 100.875 15.7699 100.875 15.6531C100.875 15.5364 100.583 14.8361 100.218 14.0921C99.1531 11.8744 97.3003 10.2842 95.1848 9.80272C94.2073 9.56929 92.4566 9.62765 91.4353 9.91944ZM95.5933 13.3188C96.1915 13.7273 96.7605 14.3984 96.6 14.5443C96.4979 14.6611 89.6408 17.5206 89.4803 17.5206C89.2761 17.5206 89.3198 16.7474 89.597 15.9158C89.918 14.9383 91.056 13.6544 92.0481 13.1875C92.6608 12.8957 92.9672 12.8519 93.8863 12.8811C94.8055 12.9249 95.0827 12.9978 95.5933 13.3188Z" fill="#EDEEF4"></path></svg>