<svg xmlns="http://www.w3.org/2000/svg" width="40" height="40" viewBox="0 0 40 40" fill="none"><g clip-path="url(#clip0_2114_4491)"><path d="M19.6889 0.0335579C19.666 0.0921516 15.5337 11.9808 15.5204 12.0257L15.5071 12.0687L17.1695 12.0765C18.7996 12.0824 18.8358 12.0824 19.0148 12.1254C19.6794 12.2816 20.1554 12.5902 20.4697 13.0746C20.7458 13.5004 20.8562 13.9457 20.8353 14.5394C20.8239 14.8656 20.7991 15.0238 20.7153 15.3265C20.6887 15.4261 19.7213 18.225 18.5654 21.5472L16.4649 27.5882L14.3664 27.5941L12.2679 27.598L12.2755 27.555C12.2812 27.5297 13.3095 24.5629 14.5625 20.9593C15.8175 17.3578 16.842 14.4066 16.842 14.4027C16.842 14.3988 16.3583 14.3949 15.7679 14.3949H14.6939L14.6444 14.5355C14.6158 14.6136 13.5837 17.5824 12.3497 21.1332L10.1046 27.5882L7.98699 27.5941L5.86941 27.598L5.88084 27.555C5.88655 27.5297 8.00223 21.4359 10.5845 14.014C13.1648 6.59019 15.2747 0.51598 15.2709 0.512074C15.2595 0.498402 14.3683 0.742542 13.9665 0.867542C11.4281 1.6566 9.03816 2.99645 7.0158 4.76403C6.28074 5.4066 5.44856 6.25621 4.83348 6.99254C1.17532 11.3734 -0.450947 17.1156 0.343145 22.8461C0.880157 26.7152 2.4969 30.2894 5.05818 33.2718C5.4181 33.6898 6.33597 34.6273 6.7492 34.9984C8.37356 36.4574 10.135 37.5902 12.0984 38.4398C12.6639 38.6859 13.5533 39.0121 14.1093 39.1781C14.5073 39.2972 14.871 39.3929 14.8825 39.3793C14.8882 39.3714 17.021 33.2347 19.6222 25.7425C22.2216 18.2504 24.362 12.0902 24.3754 12.055L24.4001 11.9925H27.9193C30.0768 11.9925 31.507 12.0004 31.6155 12.0121C32.7124 12.1312 33.5541 12.725 33.8264 13.5746C33.9578 13.9808 33.9464 14.5062 33.7978 15.0199C33.7712 15.1117 32.8666 17.7425 31.7869 20.8695C30.5301 24.5121 29.7912 26.6254 29.7303 26.7543C29.3913 27.4691 28.7952 27.9261 27.9935 28.0843C27.6431 28.1547 27.2966 28.1644 25.1257 28.1644H23.0214L20.9705 34.0668L18.9215 39.9711L19.1519 39.9867C19.5899 40.016 20.6715 39.9808 21.4218 39.9125C25.8931 39.5043 30.0883 37.5062 33.3122 34.2484C35.4755 32.0609 37.0332 29.5433 38.0577 26.5765C38.8842 24.182 39.2594 21.389 39.1032 18.7992C38.829 14.264 37.1456 10.1175 34.1863 6.682C33.9045 6.35582 32.9504 5.37926 32.6286 5.08629C30.2235 2.90465 27.4984 1.41442 24.4668 0.623402C23.1109 0.271839 21.8369 0.082386 20.3935 0.019886C19.746 -0.00745773 19.706 -0.00745773 19.6889 0.0335579Z" fill="#EDEEF4"></path><path d="M27.7859 14.4375C27.7707 14.4844 26.8776 17.0566 25.8017 20.1562C24.7238 23.2559 23.8402 25.8066 23.8345 25.8242C23.8269 25.8574 23.8859 25.8594 24.8838 25.8594H25.9407L25.9692 25.7754C26.1083 25.3691 29.9283 14.3848 29.9359 14.3711C29.9416 14.3633 29.4655 14.3555 28.8809 14.3555H27.8145L27.7859 14.4375Z" fill="#EDEEF4"></path></g><defs><clipPath id="clip0_2114_4491"><rect width="39" height="40" fill="white" transform="translate(0.141113)"></rect></clipPath></defs></svg>