<svg xmlns="http://www.w3.org/2000/svg" width="85" height="34" viewBox="0 0 85 34" fill="none"><g clip-path="url(#clip0_2114_4495)"><path d="M0.172363 1.53296V2.68164H8.32627H16.4802V1.53296V0.384284H8.32627H0.172363V1.53296Z" fill="#EDEEF4"></path><path d="M18.8428 1.53296V2.68164H30.5175L42.1889 2.6784L42.0248 2.5328C41.0142 1.63003 39.4687 0.869641 38.0545 0.581663C37.1095 0.390756 37.8215 0.403698 27.9089 0.393991L18.8428 0.381048V1.53296Z" fill="#EDEEF4"></path><path d="M46.8647 1.53296V2.68164H53.9194C57.9127 2.68164 60.9741 2.6687 60.9741 2.65252C60.9741 2.63634 60.8002 2.1251 60.5837 1.51355L60.1965 0.400463L53.529 0.390756L46.8647 0.384284V1.53296Z" fill="#EDEEF4"></path><path d="M70.7751 0.520185C70.6439 0.892291 70.0303 2.65899 70.0303 2.6687C70.0303 2.67517 73.2131 2.68164 77.1014 2.68164H84.1725V1.53296V0.384284H77.4984H70.8243L70.7751 0.520185Z" fill="#EDEEF4"></path><path d="M0.172363 5.96656V7.11523H8.32627H16.4802V5.96656V4.81788H8.32627H0.172363V5.96656Z" fill="#EDEEF4"></path><path d="M18.8428 5.96656V7.11523H31.8562H44.8697L44.8467 7.00846C44.7581 6.60723 44.3348 5.52974 44.0723 5.04438L43.9607 4.83406L31.4034 4.82435L18.8428 4.81788V5.96656Z" fill="#EDEEF4"></path><path d="M46.8647 5.96656V7.11523H54.7037H62.5458L62.2308 6.21571C62.0602 5.72388 61.8797 5.20616 61.8338 5.06703L61.7485 4.81788H54.3066H46.8647V5.96656Z" fill="#EDEEF4"></path><path d="M68.8717 5.94067C68.6617 6.56193 68.4878 7.07641 68.4878 7.08935C68.4878 7.10553 72.0184 7.11523 76.33 7.11523H84.1722V5.96656V4.81788H76.7139H69.2589L68.8717 5.94067Z" fill="#EDEEF4"></path><path d="M4.83154 10.3669V11.5156H8.32607H11.8206V10.3669V9.21827H8.32607H4.83154V10.3669Z" fill="#EDEEF4"></path><path d="M23.502 10.3669V11.5156H26.9965H30.491V10.3669V9.21827H26.9965H23.502V10.3669Z" fill="#EDEEF4"></path><path d="M37.5132 10.3669V11.5156H41.1685H44.8238L44.8927 11.2309C45.0305 10.6517 45.1257 9.92365 45.1257 9.45771V9.21827H41.3194H37.5132V10.3669Z" fill="#EDEEF4"></path><path d="M51.5239 10.3669V11.5156H57.8042H64.0878L63.7728 10.6161C63.6022 10.1243 63.4217 9.60655 63.3758 9.46742L63.2905 9.21827H57.4072H51.5239V10.3669Z" fill="#EDEEF4"></path><path d="M67.6285 9.46742C67.5826 9.60655 67.4021 10.1243 67.2315 10.6161L66.9165 11.5156H73.2001H79.4804V10.3669V9.21827H73.5971H67.7138L67.6285 9.46742Z" fill="#EDEEF4"></path><path d="M4.83154 14.7996V15.9482H8.32607H11.8206V14.7996V13.6509H8.32607H4.83154V14.7996Z" fill="#EDEEF4"></path><path d="M23.502 14.7996V15.9482H32.7551H42.0049L42.4052 15.5664C42.6251 15.3593 42.9302 15.039 43.0845 14.8546C43.3535 14.531 43.9113 13.7383 43.9113 13.68C43.9113 13.6638 39.7343 13.6509 33.7066 13.6509H23.502V14.7996Z" fill="#EDEEF4"></path><path d="M51.5239 14.7996V15.9482H55.0021H58.4802V14.8934C58.4802 14.3142 58.4933 13.8483 58.5064 13.858C58.5196 13.8644 58.6935 14.3401 58.8903 14.9096L59.2513 15.9482H65.5021H71.7528L72.1138 14.9096C72.3106 14.3401 72.4846 13.8644 72.4977 13.858C72.5108 13.8483 72.5239 14.3142 72.5239 14.8934V15.9482H76.0021H79.4802V14.7996V13.6509H72.8225H66.1649L65.9286 14.3207C65.8006 14.6928 65.6563 15.107 65.6071 15.2429C65.5578 15.382 65.5119 15.4952 65.5021 15.4952C65.4922 15.4952 65.4463 15.382 65.3971 15.2429C65.3478 15.107 65.2035 14.6928 65.0755 14.3207L64.8392 13.6509H58.1816H51.5239V14.7996Z" fill="#EDEEF4"></path><path d="M4.83154 19.2V20.3486H8.32607H11.8206V19.2V18.0513H8.32607H4.83154V19.2Z" fill="#EDEEF4"></path><path d="M23.502 19.2V20.3486H33.7066C39.3209 20.3486 43.9113 20.3422 43.9113 20.3325C43.9113 20.2969 43.4848 19.6756 43.2945 19.4297C42.9795 19.0252 42.5102 18.5172 42.2281 18.2745L41.9721 18.0513H32.7387H23.502V19.2Z" fill="#EDEEF4"></path><path d="M51.5239 19.2V20.3486H55.0021H58.4802V19.2V18.0513H55.0021H51.5239V19.2Z" fill="#EDEEF4"></path><path d="M60.0355 18.1063C60.0486 18.1386 60.2291 18.6564 60.4391 19.255L60.8197 20.3486H65.502H70.1877L70.227 20.2419C70.2467 20.1868 70.4173 19.6918 70.6077 19.1417C70.798 18.5949 70.9588 18.1257 70.9686 18.0998C70.985 18.0577 70.3353 18.0513 65.502 18.0513C60.3177 18.0513 60.0158 18.0545 60.0355 18.1063Z" fill="#EDEEF4"></path><path d="M72.5239 19.2V20.3486H76.0021H79.4802V19.2V18.0513H76.0021H72.5239V19.2Z" fill="#EDEEF4"></path><path d="M4.83154 23.6335V24.7822H8.32607H11.8206V23.6335V22.4849H8.32607H4.83154V23.6335Z" fill="#EDEEF4"></path><path d="M23.502 23.6335V24.7822H26.9965H30.491V23.6335V22.4849H26.9965H23.502V23.6335Z" fill="#EDEEF4"></path><path d="M37.5132 23.6335V24.7822H41.3194H45.1257V24.5428C45.1257 24.0833 45.0305 23.3553 44.8927 22.7664L44.8238 22.4849H41.1685H37.5132V23.6335Z" fill="#EDEEF4"></path><path d="M51.5239 23.6335V24.7822H55.0021H58.4802V23.6335V22.4849H55.0021H51.5239V23.6335Z" fill="#EDEEF4"></path><path d="M61.6005 22.5722C61.6301 22.6434 62.0337 23.7759 62.3421 24.6431L62.3913 24.7822H65.502H68.6126L68.6618 24.6431C68.9702 23.7759 69.3738 22.6434 69.4034 22.5722L69.4395 22.4849H65.502H61.5645L61.6005 22.5722Z" fill="#EDEEF4"></path><path d="M72.5239 23.6335V24.7822H76.0021H79.4802V23.6335V22.4849H76.0021H72.5239V23.6335Z" fill="#EDEEF4"></path><path d="M0.172363 28.0339V29.1826H8.32627H16.4802V28.0339V26.8853H8.32627H0.172363V28.0339Z" fill="#EDEEF4"></path><path d="M18.8428 28.0339V29.1826H31.4067H43.9673L44.2003 28.7199C44.4989 28.1245 44.7384 27.4806 44.8467 26.9888L44.8697 26.8853H31.8562H18.8428V28.0339Z" fill="#EDEEF4"></path><path d="M46.8647 28.0339V29.1826H52.6726H58.4804V28.0339V26.8853H52.6726H46.8647V28.0339Z" fill="#EDEEF4"></path><path d="M63.3531 27.4737C63.4679 27.8005 63.6484 28.3118 63.7567 28.6159L63.9503 29.166H65.5023H67.051L67.4415 28.0853C67.6548 27.4899 67.8385 26.9754 67.8517 26.9431C67.8681 26.8881 67.7663 26.8848 65.5056 26.8848H63.1431L63.3531 27.4737Z" fill="#EDEEF4"></path><path d="M72.5239 28.0339V29.1826H78.3481H84.1724V28.0339V26.8853H78.3481H72.5239V28.0339Z" fill="#EDEEF4"></path><path d="M0.172363 32.4666V33.6152H8.32627H16.4802V32.4666V31.3179H8.32627H0.172363V32.4666Z" fill="#EDEEF4"></path><path d="M18.8428 32.4471V33.5764L23.6761 33.599C26.3306 33.6087 30.442 33.6152 32.8045 33.6087C36.6075 33.5958 37.1423 33.5893 37.4343 33.5408C39.3112 33.2399 40.6762 32.6186 42.1232 31.402L42.2217 31.3211L30.5339 31.3178H18.8428V32.4471Z" fill="#EDEEF4"></path><path d="M46.8647 32.4666V33.6152H52.6726H58.4804V32.4666V31.3179H52.6726H46.8647V32.4666Z" fill="#EDEEF4"></path><path d="M64.7211 31.3571C64.7309 31.3797 64.9049 31.8748 65.1116 32.4605C65.315 33.0429 65.4922 33.5186 65.502 33.5186C65.5119 33.5186 65.6891 33.0429 65.8925 32.4572C66.0992 31.8748 66.2731 31.3797 66.283 31.3571C66.2928 31.328 66.1222 31.3183 65.502 31.3183C64.8819 31.3183 64.7113 31.328 64.7211 31.3571Z" fill="#EDEEF4"></path><path d="M72.5239 32.4666V33.6152H78.3481H84.1724V32.4666V31.3179H78.3481H72.5239V32.4666Z" fill="#EDEEF4"></path></g><defs><clipPath id="clip0_2114_4495"><rect width="84" height="33.2308" fill="white" transform="translate(0.172363 0.384766)"></rect></clipPath></defs></svg>