<svg xmlns="http://www.w3.org/2000/svg" width="98" height="60" viewBox="0 0 98 60" fill="none"><path d="M12.0327 19.5005C12.0327 26.1605 12.0176 26.2505 11.1991 27.0005C10.8505 27.3305 10.6535 27.3755 9.75928 27.3755C8.86506 27.3755 8.66803 27.3305 8.31943 27.0005C7.68287 26.4155 7.47068 25.7405 7.37975 23.9705C7.31912 22.9355 7.22818 22.3505 7.12209 22.3505C7.03115 22.3505 6.48553 22.4855 5.89443 22.6355L4.8335 22.9055L4.86381 24.2105C4.87896 25.3655 4.93959 25.6505 5.36396 26.4905C6.21271 28.2155 7.57678 28.8755 10.0321 28.7705C12.3662 28.6655 13.609 27.9005 14.3365 26.1155C14.6699 25.3055 14.6851 25.0955 14.7305 19.3055L14.776 13.3505H13.4119H12.0327V19.5005Z" fill="#EDEEF4"></path><path d="M28.25 20.925V28.5H29.5383H30.8266V24.555C30.8266 21.12 30.8569 20.565 31.0994 20.1C31.6298 19.05 32.8727 18.615 33.873 19.14C34.7066 19.56 34.7672 19.965 34.7672 24.45V28.5H36.0555H37.3438V24.69C37.3438 20.55 37.2377 19.575 36.6617 18.72C35.5856 17.115 32.6605 16.98 31.3722 18.48L30.8266 19.11V16.23V13.35H29.5383H28.25V20.925Z" fill="#EDEEF4"></path><path d="M20.2624 17.5506C17.7313 18.0756 16.1096 20.5506 16.3218 23.5506C16.5643 27.0306 19.0954 29.1456 22.3995 28.6206C24.9003 28.2306 26.4917 26.3556 26.6887 23.5506C26.8706 21.0006 25.7338 18.8106 23.7787 17.9106C22.9148 17.5056 21.2476 17.3406 20.2624 17.5506ZM22.6571 18.9456C23.7635 19.6656 24.3395 21.9006 24.0212 24.2556C23.7332 26.5356 22.9603 27.5256 21.5053 27.5256C20.0654 27.5256 19.2924 26.5506 18.9742 24.3306C18.8529 23.4006 18.8529 22.8006 18.9893 21.8706C19.2924 19.6956 20.1412 18.6006 21.5053 18.6006C21.9145 18.6006 22.3237 18.7206 22.6571 18.9456Z" fill="#EDEEF4"></path><path d="M43.8002 17.5806C43.4365 17.6856 42.9515 18.0006 42.5422 18.3906L41.8905 19.0356V18.3756V17.7006H40.6022H39.314L39.3443 23.0556L39.3897 28.4256L40.6477 28.4706L41.8905 28.5156V24.5706C41.8905 21.1206 41.9208 20.5656 42.1633 20.1006C42.6787 19.0656 43.9366 18.6156 44.9218 19.1256C45.7857 19.5756 45.8312 19.8306 45.8312 24.3756V28.5006H47.1346H48.4229L48.3774 24.1806C48.3319 20.1606 48.3168 19.8306 48.0137 19.1856C47.3316 17.7306 45.6493 17.1006 43.8002 17.5806Z" fill="#EDEEF4"></path><path d="M52.8488 17.5505C52.091 17.7155 51.1513 18.1655 50.8027 18.5555C49.8024 19.6505 49.863 21.5705 50.9543 22.6955C51.5302 23.2955 51.9243 23.4755 53.7127 23.9255C56.1074 24.5255 56.4408 24.7655 56.4408 25.9055C56.4408 26.9555 55.6527 27.6005 54.3947 27.6005C53.061 27.6005 52.4244 27.1205 52.0304 25.8305C51.8182 25.1105 51.7424 25.0955 50.5299 25.4855C49.7569 25.7255 49.6963 25.7855 49.7266 26.1605C49.8479 27.7955 52.4396 29.0255 55.001 28.6655C57.3502 28.3205 58.4718 27.2105 58.4718 25.2005C58.4718 24.1205 58.2444 23.5655 57.5472 22.9355C56.9258 22.3505 56.3651 22.1105 54.6372 21.6755C52.864 21.2405 52.4547 21.0155 52.1971 20.4005C52.0455 20.0405 52.0455 19.8605 52.1971 19.5005C52.4699 18.8405 53.1216 18.5555 54.1826 18.6305C55.2283 18.7055 55.7436 19.0805 56.0165 19.9805C56.2135 20.6255 56.3196 20.6555 57.426 20.2655C58.0626 20.0255 58.1838 19.9355 58.1383 19.6505C58.0777 19.0655 57.3502 18.2855 56.5166 17.9105C55.6224 17.5055 53.8794 17.3255 52.8488 17.5505Z" fill="#EDEEF4"></path><path d="M63.6095 17.55C61.0935 18.045 59.4567 20.55 59.6688 23.55C59.8204 25.815 60.8813 27.48 62.6698 28.275C64.0187 28.86 65.701 28.86 67.0348 28.26C68.1867 27.75 69.1718 26.73 69.6417 25.53C70.1418 24.285 70.1418 21.9 69.6417 20.64C69.2324 19.635 68.1867 18.42 67.3531 18C66.2921 17.475 64.8977 17.31 63.6095 17.55ZM66.0042 18.945C67.1106 19.665 67.6865 21.9 67.3682 24.255C67.0802 26.535 66.3073 27.525 64.8523 27.525C63.4124 27.525 62.6395 26.55 62.3212 24.33C62.1999 23.4 62.1999 22.8 62.3363 21.87C62.6395 19.695 63.4882 18.6 64.8523 18.6C65.2615 18.6 65.6707 18.72 66.0042 18.945Z" fill="#EDEEF4"></path><path d="M75.9617 17.625C75.4767 17.775 75.0826 18.06 74.7189 18.48L74.1732 19.11V18.405V17.7H72.885H71.5967V23.1V28.5H72.885H74.1732V24.555C74.1732 21.12 74.2036 20.565 74.4461 20.1C74.9765 19.05 76.2193 18.615 77.2196 19.14C78.0532 19.56 78.1139 19.965 78.1139 24.45V28.5H79.4021H80.6904V24.69C80.6904 20.55 80.5843 19.575 80.0084 18.72C79.2809 17.64 77.4773 17.145 75.9617 17.625Z" fill="#EDEEF4"></path><path d="M7.92547 31.3945C6.39469 31.9645 5.56109 32.9545 5.40953 34.3795C5.30344 35.4595 5.54594 36.2545 6.34922 37.4395C6.72813 37.9945 7.01609 38.4595 7.00094 38.4745C6.97063 38.4895 6.69781 38.6545 6.39469 38.8345C5.04578 39.6295 4 41.3095 4 42.6745C4 43.4545 4.40922 44.5945 4.90938 45.1945C5.71266 46.1395 6.59172 46.5445 8.03156 46.6195C9.50172 46.6945 10.79 46.3645 12.2602 45.5395L13.1695 45.0295L13.8667 45.6895L14.5487 46.3645L16.2008 46.3195L17.8528 46.2745L16.5342 44.8495C15.8219 44.0695 15.2156 43.3795 15.2156 43.3195C15.2156 43.2595 15.4884 42.7945 15.8219 42.2695C16.61 41.0845 16.9283 39.9745 16.8525 38.8345C16.7767 37.7695 16.4433 37.2595 15.5188 36.7795C14.7306 36.3895 13.7 36.3445 12.4875 36.6595C12.0328 36.7795 11.6388 36.8545 11.6084 36.8395C11.5933 36.8095 11.8358 36.6145 12.1692 36.4045C13.4423 35.5645 13.9728 34.6045 13.7606 33.5095C13.6394 32.8345 12.9422 32.0395 12.1238 31.6045C11.3356 31.2145 8.78938 31.0795 7.92547 31.3945ZM10.8203 32.4745C12.3511 33.2545 11.8661 36.1945 10.0322 37.1395C9.63812 37.3345 9.60781 37.3195 8.92578 36.5545C7.91031 35.4295 7.59203 34.7395 7.68297 33.9445C7.75875 33.2545 8.19828 32.6245 8.77422 32.3995C9.27437 32.1895 10.3505 32.2345 10.8203 32.4745ZM13.6394 37.7845C15.0944 38.4445 15.5491 40.0195 14.8216 41.8495C14.6852 42.1795 14.5184 42.4495 14.4578 42.4495C14.3063 42.4495 10.3656 38.1595 10.3656 37.9795C10.3656 37.8895 10.6233 37.7695 10.9416 37.6795C11.8509 37.4395 12.9573 37.4845 13.6394 37.7845ZM10.4414 41.9845C11.5327 43.1695 12.442 44.1895 12.4572 44.2645C12.5481 44.5045 11.1083 45.0295 10.1383 45.1195C7.91031 45.2845 6.44016 43.9345 6.425 41.7295C6.425 40.7095 6.65234 40.0945 7.31922 39.4045L7.71328 38.9845L8.09219 39.4195C8.30438 39.6595 9.36531 40.8145 10.4414 41.9845Z" fill="#EDEEF4"></path><path d="M26.2799 37.3804C26.2799 40.9204 26.2193 43.5004 26.1284 43.8304C26.0374 44.1304 25.7343 44.5804 25.4312 44.8354C24.9765 45.2404 24.7946 45.3004 24.0216 45.3004C22.2635 45.3004 21.5966 44.3404 21.5815 41.7304C21.5815 40.7254 21.536 40.3504 21.3996 40.3504C21.2935 40.3504 20.7024 40.4554 20.081 40.6054L18.9746 40.8604L19.0352 42.1504C19.202 45.1654 20.8085 46.6504 23.9155 46.6504C25.7191 46.6504 26.6437 46.3354 27.5834 45.3904C28.8413 44.1604 28.8565 44.0254 28.8565 37.2454V31.5004H27.5682H26.2799V37.3804Z" fill="#EDEEF4"></path><path d="M42.4971 38.9252V46.3652L43.755 46.3202L44.9979 46.2752L45.0736 42.3002C45.1494 38.0852 45.1797 37.9502 45.9224 37.3652C46.4225 36.9752 47.7108 36.9302 48.2261 37.2902C48.9688 37.8002 49.0143 38.1002 49.0143 42.3752V46.3652L50.2722 46.3202L51.515 46.2752V42.2252C51.515 37.8602 51.4544 37.4552 50.7118 36.5702C50.1661 35.9402 49.2568 35.5502 48.2564 35.5502C47.0439 35.5502 46.3468 35.7902 45.6799 36.4502L45.0736 37.0502L45.0433 34.3052L44.9979 31.5752L43.755 31.5302L42.4971 31.4852V38.9252Z" fill="#EDEEF4"></path><path d="M34.0851 35.7602C32.6452 36.2102 31.6904 37.0502 31.0235 38.4752C30.6294 39.3002 30.5991 39.5252 30.5991 41.1002C30.5991 42.6902 30.6446 42.9002 31.0387 43.7102C31.8419 45.3302 33.1151 46.2452 34.9035 46.5002C37.4194 46.8452 39.6777 45.5852 40.5416 43.3652C40.9812 42.2552 41.0115 40.0352 40.6174 38.9252C39.8141 36.7502 38.0408 35.5352 35.7068 35.5652C35.146 35.5652 34.4185 35.6552 34.0851 35.7602ZM36.4797 36.8102C37.7983 37.3502 38.3137 38.7602 38.2227 41.4602C38.1621 43.0502 38.1015 43.3652 37.7529 44.0402C37.283 44.9552 36.7526 45.3302 35.828 45.4202C34.8883 45.4952 34.2215 45.0452 33.6607 43.9352C32.9029 42.4352 32.9332 39.4502 33.7213 37.9352C34.2821 36.8252 35.4188 36.3602 36.4797 36.8102Z" fill="#EDEEF4"></path><path d="M57.6835 35.8506C57.3349 36.0006 56.8348 36.3606 56.5923 36.6306L56.1376 37.1106V36.4056V35.7006H54.8493H53.561V41.0256V46.3506H54.8493H56.1376V42.5106C56.1376 38.2956 56.1982 37.9506 57.047 37.3506C57.5774 36.9756 58.8657 36.9456 59.3962 37.2906C60.0024 37.6806 60.0782 38.2056 60.0782 42.3906V46.3506H61.3665H62.6548V42.4806C62.6396 38.4456 62.5487 37.5906 62.0031 36.7806C61.2453 35.6556 59.1234 35.2056 57.6835 35.8506Z" fill="#EDEEF4"></path><path d="M66.4438 35.85C64.5189 36.495 63.7459 38.49 64.7614 40.14C65.2919 40.995 65.9739 41.355 68.0048 41.895C70.2934 42.495 70.6875 42.765 70.6875 43.755C70.6875 44.25 70.5814 44.505 70.248 44.88C69.8539 45.315 69.7175 45.375 68.7778 45.42C67.9291 45.45 67.6411 45.405 67.2319 45.15C66.7469 44.85 66.1558 43.845 66.1406 43.305C66.1406 43.17 66.0952 43.05 66.0497 43.05C65.7011 43.05 63.8672 43.695 63.8672 43.815C63.8672 44.085 64.3219 45.06 64.5947 45.345C65.6708 46.53 68.9445 46.92 70.8542 46.095C72.2789 45.465 73.0519 43.875 72.673 42.36C72.2941 40.905 71.4605 40.32 68.8081 39.66C66.8833 39.18 66.3831 38.85 66.3831 38.055C66.3831 37.41 66.7317 36.975 67.4592 36.735C68.6414 36.345 69.9448 36.915 70.248 37.965C70.3541 38.28 70.5056 38.55 70.5814 38.55C70.9755 38.55 72.5063 38.04 72.5063 37.92C72.5063 37.575 71.8394 36.645 71.3695 36.33C70.2025 35.52 68.0048 35.31 66.4438 35.85Z" fill="#EDEEF4"></path><path d="M77.2503 35.8206C75.3103 36.5106 74.1281 38.1456 73.9159 40.4406C73.734 42.3306 74.3706 44.1456 75.5831 45.2556C76.735 46.3056 78.2354 46.7256 79.9784 46.5006C81.7365 46.2606 82.9793 45.3156 83.7826 43.6656C84.2222 42.7506 84.2525 42.5556 84.2525 41.0256C84.2525 39.5556 84.207 39.2856 83.8584 38.5356C82.9339 36.6006 81.5092 35.6706 79.3418 35.5956C78.3567 35.5506 77.8414 35.6106 77.2503 35.8206ZM80.0845 36.9306C80.5847 37.1856 80.8575 37.4556 81.1151 37.9806C81.6456 39.0006 81.8578 40.8156 81.6304 42.3306C81.3122 44.4606 80.3876 45.5406 78.9781 45.4056C78.5689 45.3756 78.0536 45.2106 77.8414 45.0456C76.1287 43.7856 76.0378 38.7756 77.6898 37.2456C78.4476 36.5406 79.1297 36.4506 80.0845 36.9306Z" fill="#EDEEF4"></path><path d="M90.0874 35.7902C89.7994 35.9102 89.2993 36.2552 88.9962 36.5702L88.4202 37.1102V36.4052V35.6852L87.1774 35.7302L85.9194 35.7752V41.0252V46.2752L87.1774 46.3202L88.4202 46.3652V42.5702C88.4202 39.1652 88.4505 38.7152 88.7082 38.1452C89.0719 37.3802 89.663 37.0502 90.6482 37.0502C91.4212 37.0502 91.891 37.3202 92.1941 37.9052C92.3002 38.1152 92.3608 39.6002 92.3608 42.2852V46.3502H93.6491H94.9374V42.4052C94.9374 38.0702 94.8313 37.3352 94.0887 36.5402C93.2096 35.6252 91.3302 35.2652 90.0874 35.7902Z" fill="#EDEEF4"></path></svg>