<svg xmlns="http://www.w3.org/2000/svg" width="40" height="34" viewBox="0 0 40 34" fill="none"><g clip-path="url(#clip0_2114_4571)"><path fill-rule="evenodd" clip-rule="evenodd" d="M39.9189 32.9997C39.7472 24.4913 38.402 16.3022 36.1296 9.9417C33.8393 3.53418 30.9805 0.00488281 28.0821 0.00488281C26.281 0.00488281 24.5892 1.34002 23.0513 3.97565C22.0989 5.61033 21.2113 7.75662 20.4395 10.2825C19.6653 7.75662 18.7793 5.61033 17.8253 3.97565C16.289 1.34002 14.5964 0.00488281 12.7953 0.00488281C9.89445 0.00488281 7.0373 3.53418 4.74785 9.9417C2.47622 16.3022 1.13024 24.4913 0.958556 32.9989L0.9375 33.9973H6.7579L6.76924 33.0335C6.99519 15.2575 11.1505 3.98308 12.8431 3.98308C13.9834 3.98308 16.8972 11.7901 17.3394 31.1191L17.3621 32.0714H23.5153L23.5372 31.1191C23.9786 11.7901 26.8932 3.98225 28.0335 3.98225C29.7269 3.98225 33.8806 15.2567 34.1074 33.0327L34.1195 33.9973H39.9375L39.9189 32.9997Z" fill="#EDEEF4"></path><path fill-rule="evenodd" clip-rule="evenodd" d="M39.4784 33.0095C39.3083 24.5489 37.9705 16.4151 35.715 10.1025C33.5284 3.97553 30.7458 0.461914 28.0822 0.461914C25.1667 0.461914 22.4213 4.58946 20.4396 11.8651C18.4571 4.59029 15.7109 0.462739 12.7938 0.462739C10.1318 0.462739 7.34837 3.97636 5.16015 10.1017C2.90552 16.4143 1.56927 24.5489 1.3992 33.0095L1.38867 33.5368H6.32309L6.32876 33.0268C6.55795 15.0123 10.7352 3.52251 12.8432 3.52251C14.6492 3.52251 17.3695 13.1078 17.7809 31.1058L17.7938 31.6116H23.0846L23.0959 31.1058C23.5073 13.1086 26.2292 3.52251 28.0336 3.52251C30.1424 3.52251 34.3196 15.0123 34.548 33.0268L34.5545 33.5368H39.4889L39.4784 33.0095Z" fill="#EDEEF4"></path><path fill-rule="evenodd" clip-rule="evenodd" d="M12.7401 1.99609V3.01272C9.86272 3.31968 6.04265 16.4326 5.8329 33.0204L3.87549 30.9789V30.9277C4.49745 14.6634 8.84797 2.12565 12.7401 1.99609Z" fill="#EDEEF4"></path><path fill-rule="evenodd" clip-rule="evenodd" d="M12.6397 0.987305H12.9742C15.8597 1.18535 18.6059 6.16779 20.4346 13.8651V28.7398C19.7219 13.3757 16.5505 1.9932 12.8009 1.9932C12.0275 1.9932 11.2346 2.48831 10.4556 3.40756V1.9734C11.1844 1.36854 11.9182 1.03021 12.6397 0.987305ZM29.3915 2.4487V3.87379C28.9267 3.30689 28.4683 3.00487 28.0334 3.00487C25.2556 3.00487 22.9613 15.234 22.5993 31.0948L20.441 28.8429V28.8074C21.1456 13.4096 24.321 1.9932 28.0763 1.9932C28.5104 1.9932 28.9509 2.14998 29.3915 2.4487Z" fill="#EDEEF4"></path><path fill-rule="evenodd" clip-rule="evenodd" d="M38.9752 32.7802V33.0137L37.013 30.9689L37.0049 30.9772C36.4331 15.8805 32.6487 3.98307 28.9971 2.21966V1.13867C33.6732 2.71889 38.5954 16.0753 38.9744 32.7802H38.9752Z" fill="#EDEEF4"></path></g><defs><clipPath id="clip0_2114_4571"><rect width="39" height="34" fill="white" transform="translate(0.9375)"></rect></clipPath></defs></svg>