<svg xmlns="http://www.w3.org/2000/svg" width="103" height="20" viewBox="0 0 103 20" fill="none"><g clip-path="url(#clip0_2114_4552)"><path d="M3.60801 13.1895C3.60801 14.3393 3.86732 15.222 4.20624 15.756C4.65061 16.4555 5.31339 16.7518 5.98909 16.7518C6.86061 16.7518 7.65789 16.5414 9.19434 14.4733C10.4252 12.8157 11.8756 10.489 12.8515 9.03037L14.5042 6.55916C15.6522 4.84293 16.981 2.93508 18.5045 1.64188C19.7483 0.586387 21.09 0 22.4404 0C24.7074 0 26.8668 1.27853 28.5195 3.67644C30.3281 6.30262 31.2061 9.61047 31.2061 13.0241C31.2061 15.0534 30.7951 16.5445 30.0957 17.7225C29.42 18.8618 28.1031 20 25.8877 20V16.7518C27.7846 16.7518 28.258 15.0555 28.258 13.1141C28.258 10.3476 27.5952 7.27749 26.1352 5.08377C25.099 3.52775 23.7562 2.57696 22.279 2.57696C20.6812 2.57696 19.3954 3.74974 17.9504 5.84084C17.1822 6.95183 16.3935 8.30576 15.508 9.83351L14.5332 11.5141C12.575 14.8932 12.079 15.6628 11.0998 16.933C9.38371 19.1571 7.91826 20 5.98909 20C3.70054 20 2.25339 19.0356 1.35713 17.5822C0.62548 16.3979 0.266113 14.844 0.266113 13.0733L3.60801 13.1895Z" fill="#EDEEF4"></path><path d="M2.90088 3.90576C4.43303 1.60733 6.64411 0 9.18012 0C10.6488 0 12.1089 0.423037 13.6335 1.63455C15.3012 2.95916 17.0787 5.14031 19.2962 8.73508L20.0913 10.0251C22.0108 13.1372 23.1029 14.7382 23.742 15.4932C24.564 16.4628 25.1397 16.7518 25.8875 16.7518C27.7844 16.7518 28.2578 15.0555 28.2578 13.1141L31.2059 13.0241C31.2059 15.0534 30.7949 16.5445 30.0955 17.7225C29.4198 18.8618 28.1028 20 25.8875 20C24.5102 20 23.2901 19.7089 21.9409 18.4702C20.9037 17.5194 19.6911 15.8304 18.7582 14.312L15.9833 9.80105C14.5911 7.53717 13.3139 5.84921 12.5747 5.08482C11.7796 4.26283 10.7575 3.27016 9.12632 3.27016C7.80613 3.27016 6.68499 4.17173 5.74676 5.55079L2.90088 3.90576Z" fill="#EDEEF4"></path><path d="M9.12656 3.27016C7.80637 3.27016 6.68523 4.17173 5.747 5.55079C4.42035 7.49948 3.60801 10.4021 3.60801 13.1895C3.60801 14.3393 3.86732 15.222 4.20624 15.756L1.35713 17.5822C0.62548 16.3979 0.266113 14.844 0.266113 13.0733C0.266113 9.8534 1.17421 6.49738 2.90111 3.90576C4.43327 1.60733 6.64434 0 9.18035 0L9.12656 3.27016Z" fill="#EDEEF4"></path><path d="M37.7026 0.632812H41.5685L48.1415 12.2056L54.7155 0.632812H58.4975V19.6485H55.3439V5.0747L49.579 15.1668H46.6201L40.8562 5.0747V19.6485H37.7026V0.632812ZM68.379 7.72286C66.1174 7.72286 64.7552 9.37941 64.4292 11.4307H72.105C71.9469 9.31763 70.6945 7.72286 68.379 7.72286ZM61.3025 12.5993C61.3025 8.28307 64.1688 5.14171 68.4339 5.14171C72.629 5.14171 75.1338 8.24328 75.1338 12.8297V13.6726H64.4292C64.809 15.904 66.3304 17.4077 68.7836 17.4077C70.7407 17.4077 71.9641 16.8265 73.124 15.7637L74.7992 17.7606C73.2208 19.1731 71.2131 19.9878 68.6717 19.9878C64.0548 19.9878 61.3025 16.7113 61.3025 12.5993ZM78.9578 7.99512H76.0548V5.48203H78.9578V1.32601H82.0005V5.48203H86.4109V7.99512H82.0005V14.3647C82.0005 16.5396 82.715 17.3124 84.4709 17.3124C85.2725 17.3124 85.7319 17.2454 86.4109 17.1354V19.6213C85.5652 19.8538 84.7582 19.9606 83.8845 19.9606C80.5997 19.9606 78.9578 18.214 78.9578 14.7176V7.99512ZM99.2233 10.4391C98.6121 8.93752 97.2489 7.83177 95.2455 7.83177C92.6417 7.83177 90.975 9.62967 90.975 12.5585C90.975 15.414 92.5093 17.2988 95.1207 17.2988C97.1736 17.2988 98.639 16.1365 99.2233 14.6904V10.4391ZM102.266 19.6485H99.2792V17.6653C98.4443 18.8328 96.925 19.9878 94.4643 19.9878C90.507 19.9878 87.8623 16.7637 87.8623 12.5585C87.8623 8.31344 90.5705 5.14171 94.6322 5.14171C96.6399 5.14171 98.2151 5.92286 99.2792 7.30192V5.48203H102.266V19.6485Z" fill="#EDEEF4"></path></g><defs><clipPath id="clip0_2114_4552"><rect width="102" height="20" fill="white" transform="translate(0.266113)"></rect></clipPath></defs></svg>