<svg xmlns="http://www.w3.org/2000/svg" width="137" height="30" viewBox="0 0 137 30" fill="none"><g clip-path="url(#clip0_2114_4536)"><g clip-path="url(#clip1_2114_4536)"><path d="M0.368164 21.846V28.9331H7.20801H14.0479V21.846V14.7588H7.20801H0.368164V21.846Z" fill="#EDEEF4"></path><path d="M15.0435 21.846V28.9331H21.8832H28.7231V21.846V14.7588H21.8832H15.0435V21.846Z" fill="#EDEEF4"></path><path d="M0.368164 6.63891V13.7261H7.20801H14.0479V6.63891V-0.448242H7.20801H0.368164V6.63891Z" fill="#EDEEF4"></path><path d="M15.0435 6.63891V13.7261H21.8832H28.7231V6.63891V-0.448242H21.8832H15.0435V6.63891Z" fill="#EDEEF4"></path></g><path d="M126.274 4.85741C125.318 5.09136 124.866 5.35282 124.202 6.08218C123.233 7.11429 123.033 7.67851 122.98 9.52255L122.927 11.1464H121.878H120.829V12.3161V13.4859H121.891H122.954V18.7152V23.9446H124.348H125.743L125.769 18.7427L125.809 13.5547L128.027 13.5134L130.245 13.4859L130.285 17.573C130.325 21.3849 130.338 21.7152 130.604 22.2932C130.936 23.0363 131.64 23.7106 132.343 23.9583C132.981 24.1923 134.947 24.1923 135.611 23.9583L136.102 23.7794V22.6097C136.102 21.5501 136.075 21.4537 135.876 21.5501C135.743 21.6051 135.305 21.6877 134.893 21.7152C134.203 21.7565 134.097 21.729 133.698 21.3574L133.247 20.9446L133.207 17.2152L133.167 13.4859H134.641H136.102V12.3161V11.1464H134.641H133.18V9.20604C133.18 7.43081 133.167 7.27943 132.954 7.34824C132.822 7.38952 132.158 7.58218 131.493 7.7886L130.258 8.17393V9.66016V11.1464L128.04 11.1189L125.809 11.0776L125.836 9.81154C125.862 8.5042 126.008 7.99503 126.526 7.51337C126.872 7.19686 128.067 7.05925 128.651 7.26567L129.063 7.41704V6.19227C129.063 5.51796 129.023 4.93998 128.957 4.89869C128.691 4.73356 126.938 4.70604 126.274 4.85741Z" fill="#EDEEF4"></path><path d="M60.2925 5.91718C58.4464 6.78415 59.6284 9.56397 61.5808 8.95846C63.0948 8.49058 63.2276 6.45388 61.78 5.83461C61.1956 5.58691 60.9698 5.60067 60.2925 5.91718Z" fill="#EDEEF4"></path><path d="M38.0864 14.9993V23.9442H39.4146H40.7427V16.8158C40.756 10.8433 40.7825 9.75617 40.9286 10.0452C41.0216 10.2378 42.2966 13.4442 43.7442 17.1736L46.3872 23.958L47.37 23.9167L48.3528 23.8754L51.0091 16.8846C52.4833 13.0452 53.7185 9.90755 53.7849 9.90755C53.838 9.90755 53.8911 13.0589 53.8911 16.9259V23.9442H55.3521H56.813V14.9993V6.05434H54.781H52.7356L50.106 12.7286C48.645 16.403 47.4364 19.403 47.3966 19.403C47.3567 19.403 46.2013 16.4167 44.8333 12.7562L42.3497 6.12314L40.2247 6.08186L38.0864 6.05434V14.9993Z" fill="#EDEEF4"></path><path d="M101.398 10.8846C100.15 11.1874 98.8613 12.2195 98.4496 13.2379C98.2105 13.8571 98.184 15.2333 98.4098 16.0177C98.6754 16.9122 99.4723 17.6278 101.225 18.4947C103.125 19.4305 103.43 19.7195 103.43 20.5452C103.43 21.3846 103.045 21.7424 101.996 21.8388C101.039 21.9351 100.057 21.7149 99.0207 21.1782C98.5957 20.958 98.2238 20.7791 98.184 20.7791C98.1441 20.7791 98.1309 21.4122 98.1441 22.1828L98.184 23.5865L98.9809 23.8342C99.4191 23.9718 100.296 24.1232 100.92 24.1782C102.912 24.3158 104.439 23.8342 105.449 22.747C106.113 22.0452 106.352 21.3846 106.352 20.27C106.352 18.4947 105.714 17.7241 103.231 16.5131C101.358 15.5911 101.106 15.3434 101.106 14.4901C101.106 13.7333 101.544 13.2791 102.407 13.1415C103.071 13.0314 104.32 13.3204 105.157 13.7608L105.701 14.0498L105.661 12.6323L105.621 11.2149L104.758 10.981C103.829 10.7333 102.208 10.692 101.398 10.8846Z" fill="#EDEEF4"></path><path d="M69.6296 11.0085C67.3186 11.5314 65.7381 13.0314 64.9678 15.4122C64.5827 16.5819 64.6092 19.1966 65.021 20.2975C65.6053 21.8938 66.8936 23.2424 68.3678 23.8204C69.7889 24.3709 72.3921 24.3021 73.7866 23.6691L74.3444 23.4076V22.0865C74.3444 21.3571 74.3046 20.7791 74.2514 20.8067C72.4053 21.77 72.2858 21.8113 71.3561 21.7975C69.7491 21.7837 68.5538 21.0269 67.9428 19.6232C67.5046 18.6324 67.5178 16.6232 67.9561 15.6048C68.328 14.7379 69.0319 14.0085 69.8686 13.6232C70.9577 13.1278 72.7772 13.2791 73.7202 13.9672C73.8796 14.0773 74.0522 14.1736 74.1053 14.1736C74.1717 14.1736 74.2116 13.5681 74.2116 12.825V11.4626L73.521 11.2149C72.7241 10.9397 70.453 10.8158 69.6296 11.0085Z" fill="#EDEEF4"></path><path d="M82.0075 11.0086C80.9716 11.2012 80.3739 11.6829 79.5638 13.0177C79.431 13.2379 79.4044 13.1003 79.4044 12.2058L79.3911 11.1462H77.9966H76.6021V17.5453V23.9443H77.9833H79.3778L79.4177 19.981C79.4575 16.1966 79.4708 16.004 79.763 15.3434C80.1083 14.559 80.4935 14.0911 81.0114 13.8159C81.4763 13.5682 82.7247 13.5682 83.3091 13.8159L83.7739 14.0223V12.5086C83.7739 11.0498 83.7606 11.0086 83.4817 11.0086C83.3091 11.0086 83.0567 10.981 82.9106 10.9535C82.7646 10.926 82.3661 10.9535 82.0075 11.0086Z" fill="#EDEEF4"></path><path d="M88.595 11.0634C85.7528 11.779 84.0396 14.2836 84.0396 17.7515C84.0396 21.0405 85.6997 23.4212 88.4356 24.068C89.445 24.3157 91.4771 24.2469 92.42 23.9441C95.2888 23.0359 96.8427 20.3662 96.6169 16.7882C96.4177 13.7331 94.7708 11.5863 92.1677 11.0221C91.2646 10.8295 89.4716 10.8432 88.595 11.0634ZM91.57 13.4166C92.4466 13.6918 93.2435 14.5588 93.5224 15.5634C93.8013 16.5267 93.8013 18.5772 93.5224 19.5542C93.2036 20.6551 92.3271 21.5221 91.2911 21.7423C89.8966 22.0451 88.7013 21.6597 87.8646 20.6551C87.3067 19.9671 87.1075 19.3616 87.0013 18.0267C86.7622 14.6964 88.8474 12.5772 91.57 13.4166Z" fill="#EDEEF4"></path><path d="M112.196 11.1192C109.38 11.8898 107.813 14.2568 107.813 17.766C107.813 20.6972 109.115 22.9265 111.359 23.8073C112.315 24.1926 114.547 24.3302 115.675 24.0963C117.296 23.7385 118.929 22.4999 119.62 21.0687C120.337 19.61 120.576 17.5733 120.244 15.8256C119.74 13.2797 118.358 11.6834 116.114 11.0779C115.091 10.8027 113.285 10.8302 112.196 11.1192ZM115.755 13.61C116.871 14.2018 117.402 15.2889 117.482 17.1742C117.601 19.9403 116.672 21.5091 114.693 21.8119C113.205 22.0458 111.811 21.3164 111.173 19.9816C110.828 19.266 110.801 19.0733 110.801 17.6146C110.801 16.3073 110.854 15.9219 111.08 15.4128C111.585 14.2706 112.302 13.61 113.325 13.3348C113.922 13.1697 115.197 13.3073 115.755 13.61Z" fill="#EDEEF4"></path><path d="M59.7349 17.5453V23.9443H61.1294H62.5239V17.5453V11.1462H61.1294H59.7349V17.5453Z" fill="#EDEEF4"></path></g><defs><clipPath id="clip0_2114_4536"><rect width="136" height="30" fill="white" transform="translate(0.234863)"></rect></clipPath><clipPath id="clip1_2114_4536"><rect width="28.6875" height="29.2087" fill="white" transform="translate(0.334473 -0.207031)"></rect></clipPath></defs></svg>