<svg xmlns="http://www.w3.org/2000/svg" width="150" height="32" viewBox="0 0 150 32" fill="none"><g clip-path="url(#clip0_2114_4595)"><path d="M71.4259 0.174923C71.5238 0.216587 71.5238 0.216587 71.6236 0.259093C73.0173 0.904152 73.7731 2.10027 74.3208 3.47693C75.2984 6.19785 75.0518 9.61402 74.7071 12.4377C74.7022 12.4785 74.6972 12.5193 74.6921 12.5613C74.3469 15.3468 73.56 18.0128 72.3634 20.5545C72.3285 20.6293 72.3285 20.6293 72.2929 20.7056C71.9734 21.3901 71.6341 22.0615 71.2782 22.7277C71.1193 23.0256 70.9614 23.324 70.8045 23.6229C70.7674 23.6936 70.7301 23.7641 70.6927 23.8345C70.64 23.9337 70.5879 24.0331 70.5358 24.1325C70.5054 24.19 70.4751 24.2474 70.4438 24.3066C70.353 24.5071 70.2936 24.6727 70.3417 24.8905C70.9554 26.3905 72.3339 27.5426 73.7975 28.1786C74.7832 28.5793 75.7443 28.5697 76.7359 28.1786C76.9701 28.0796 77.15 27.9596 77.3438 27.7954C77.3367 27.7529 77.3296 27.7105 77.3223 27.6667C77.2904 27.476 77.2585 27.2853 77.2267 27.0946C77.2169 27.048 77.2071 27.0013 77.197 26.9533C77.0871 26.3919 77.0887 25.8358 77.0912 25.2662C77.0913 25.2143 77.0914 25.1624 77.0915 25.109C77.0947 24.3001 77.1244 23.5103 77.2852 22.7151C77.2969 22.6573 77.3085 22.5996 77.3205 22.5401C77.7712 20.3819 78.6476 18.2691 80.0977 16.5837C80.1419 16.5322 80.1419 16.5322 80.187 16.4797C81.1964 15.3182 82.5495 14.2945 84.1341 14.177C85.06 14.1468 85.8718 14.4603 86.5577 15.0764C87.8314 16.2744 88.5172 18.068 88.6057 19.7938C88.6359 21.3624 88.0506 22.723 87.0118 23.883C86.9821 23.9164 86.9524 23.9498 86.9219 23.9842C86.4411 24.5223 85.9354 25.0094 85.3712 25.4596C85.3338 25.4895 85.2965 25.5194 85.258 25.5503C84.6207 26.057 83.9516 26.5106 83.2684 26.9534C83.1457 27.0355 83.0277 27.122 82.9102 27.2114C83.9083 27.9601 84.9906 28.2549 86.2318 28.1056C87.6549 27.8813 88.7856 27.197 89.8243 26.2187C89.8705 26.1765 89.9166 26.1343 89.9642 26.0908C92.0995 24.0655 93.2522 20.9954 94.2518 18.3027C94.2679 18.2594 94.2839 18.2161 94.3005 18.1715C94.4384 17.7997 94.5762 17.428 94.7131 17.0559C94.7894 16.8495 94.8665 16.6436 94.9439 16.4377C94.9655 16.3786 94.9871 16.3194 95.0093 16.2585C95.2822 15.5385 95.6818 14.846 96.3781 14.4783C96.6361 14.3652 96.8666 14.3405 97.1485 14.3647C97.7795 14.6529 98.0274 15.3985 98.2537 16.0041C98.6791 17.1602 98.9838 18.3559 99.2937 19.5466C100.18 24.0432 100.18 24.0432 102.631 27.6692C102.962 27.8558 103.276 27.9185 103.652 27.8538C104.294 27.6644 104.696 27.0653 104.999 26.5083C105.816 24.935 106.222 23.009 105.793 21.2662C105.741 21.0522 105.695 20.837 105.648 20.622C105.622 20.5044 105.596 20.3868 105.569 20.2694C105.169 18.4704 105.304 16.3808 106.282 14.7842C106.773 14.0504 107.355 13.4994 108.209 13.2215C108.653 13.1378 109.257 13.1039 109.648 13.3494C110.25 13.8476 110.465 14.487 110.541 15.242C110.921 19.6266 108.887 25.1434 106.103 28.4899C105.958 28.6606 105.81 28.8285 105.661 28.9955C105.561 29.1084 105.464 29.224 105.366 29.3392C105.164 29.5673 104.943 29.7629 104.707 29.9559C104.618 30.0301 104.618 30.0301 104.528 30.1058C103.301 31.1137 101.864 31.7063 100.254 31.591C99.2331 31.4594 98.4914 30.8818 97.8681 30.0901C97.1592 29.1026 96.8031 27.9167 96.4463 26.7703C96.4311 26.7216 96.4159 26.6729 96.4002 26.6227C96.3248 26.3808 96.2502 26.1387 96.1773 25.896C95.91 24.882 95.91 24.882 95.2735 24.1165C95.011 24.0704 94.8414 24.1103 94.618 24.2443C94.0948 24.6206 93.6789 25.1557 93.2845 25.6587C93.1154 25.8712 92.9388 26.0769 92.7623 26.2832C92.5876 26.4878 92.4172 26.6952 92.2486 26.9049C92.0057 27.2024 91.7413 27.4706 91.4649 27.737C91.3144 27.8858 91.1654 28.0358 91.0184 28.1882C90.5929 28.627 90.1411 29.01 89.6485 29.372C89.5864 29.4177 89.5242 29.4634 89.4602 29.5105C88.184 30.4176 86.771 31.047 85.2467 31.4012C85.1972 31.4128 85.1476 31.4244 85.0966 31.4364C84.3452 31.6022 83.5917 31.6712 82.8234 31.671C82.7013 31.6713 82.5793 31.6734 82.4572 31.6756C81.7254 31.6818 81.0358 31.5479 80.3834 31.2005C80.3448 31.1804 80.3062 31.1604 80.2664 31.1397C79.6639 30.8194 79.1453 30.4472 78.6889 29.9397C78.5458 29.774 78.5458 29.774 78.345 29.7171C78.1664 29.8101 77.9944 29.9117 77.8236 30.018C76.6989 30.6999 75.5423 31.2351 74.2384 31.4742C74.1678 31.4873 74.0973 31.5004 74.0246 31.5139C72.5641 31.7444 71.1174 31.5848 69.8878 30.7178C69.8346 30.6784 69.7814 30.6389 69.7267 30.5983C69.6795 30.5637 69.6324 30.529 69.5838 30.4934C69.0804 30.1072 68.6282 29.6588 68.1671 29.2243C67.5567 28.6188 67.5567 28.6188 66.7613 28.369C66.0009 28.4248 65.3654 29.0171 64.7755 29.4475C62.6165 31.0212 60.2121 31.9179 57.4984 31.6328C56.2291 31.4247 55.2376 30.4721 54.5069 29.4778C54.1225 28.9404 53.8062 28.3581 53.4758 27.787C53.0033 26.8469 53.0033 26.8469 52.2076 26.2413C51.9749 26.2183 51.816 26.2831 51.6248 26.4122C51.0338 26.9184 50.6204 27.6069 50.193 28.2479C49.0867 29.9032 49.0867 29.9032 48.5121 30.5654C48.4831 30.5988 48.4541 30.6323 48.4242 30.6667C47.9969 31.1481 47.506 31.6014 46.843 31.6713C46.0476 31.6967 45.561 31.4544 44.9786 30.9439C43.7719 29.8143 43.1621 28.1175 42.5158 26.6347C41.7863 24.9387 41.7863 24.9387 40.8399 23.3574C40.8004 23.3007 40.7608 23.2439 40.72 23.1854C40.3346 22.6707 39.8469 22.2931 39.1993 22.1895C38.4327 22.1043 37.5494 22.8072 36.9727 23.2406C36.9403 23.2649 36.9079 23.2892 36.8744 23.3143C36.1275 23.8781 35.4253 24.4956 34.7391 25.1307C34.6086 25.2496 34.4768 25.3661 34.3433 25.4817C34.11 25.6845 33.8836 25.8938 33.6585 26.1056C33.5761 26.1829 33.4936 26.2602 33.4111 26.3376C33.3699 26.3763 33.3286 26.415 33.2861 26.4548C33.0995 26.6297 32.9121 26.8038 32.7247 26.9778C32.459 27.2248 32.1937 27.4721 31.9288 27.7199C31.2918 28.3159 30.6546 28.9119 30.0001 29.4888C29.9556 29.528 29.9556 29.528 29.9103 29.5681C29.1526 30.2344 28.3632 30.8622 27.4806 31.3574C27.4338 31.3839 27.387 31.4104 27.3389 31.4377C26.97 31.6251 26.5906 31.6596 26.1869 31.5613C25.8304 31.4269 25.6001 31.1629 25.4298 30.8319C24.9752 29.3452 26.0243 27.1015 26.4547 25.6704C26.8891 24.221 27.2604 22.7571 27.6273 21.2896C27.8489 20.4034 28.0724 19.5183 28.3224 18.6396C28.341 18.5739 28.3595 18.5082 28.3786 18.4405C28.6105 17.6394 28.9115 16.9405 29.6421 16.476C30.053 16.2534 30.4649 16.0913 30.9303 16.2224C31.3357 16.6383 31.3952 17.3626 31.5121 17.9097C31.854 19.9686 31.854 19.9686 32.8712 21.7224C33.0365 21.8196 33.0365 21.8196 33.2227 21.7808C33.9645 21.4211 34.5235 20.5171 34.9977 19.8717C35.1891 19.614 35.3856 19.3601 35.5811 19.1056C35.8572 18.7455 36.1301 18.3839 36.3957 18.0162C36.7844 17.4855 37.1946 16.971 37.6173 16.4669C37.6437 16.4352 37.6701 16.4035 37.6974 16.3709C39.3523 14.3914 39.3523 14.3914 40.4909 14.1658C40.8424 14.1378 41.1441 14.2825 41.4259 14.4815C41.9249 14.9797 42.2569 15.6211 42.5135 16.2698C42.538 16.3314 42.5625 16.3929 42.5877 16.4564C43.0821 17.7297 43.4728 19.0439 43.8708 20.3496C44.2414 21.565 44.636 22.7493 45.1795 23.9012C45.2209 23.9895 45.2209 23.9895 45.2631 24.0797C45.4657 24.4961 45.7122 24.8605 45.9962 25.226C46.0314 25.2713 46.0666 25.3167 46.1029 25.3634C46.4584 25.8102 46.9527 26.1064 47.5242 26.1749C48.0326 26.2033 48.4772 25.9958 48.8675 25.682C49.6894 24.9398 50.6337 23.5585 50.7196 22.4318C50.7262 22.3494 50.7328 22.267 50.7394 22.1847C50.7428 22.1414 50.7462 22.0982 50.7498 22.0536C50.927 19.8557 51.1954 17.1369 52.9066 15.5399C53.3589 15.1629 53.853 15.0434 54.4312 15.049C54.8363 15.0863 55.1093 15.2888 55.3712 15.591C55.3988 15.6212 55.4263 15.6515 55.4547 15.6827C56.4812 16.9039 56.3917 18.8349 56.2968 20.3328C56.2442 20.889 56.1091 21.4083 55.9461 21.9413C55.5716 23.1708 55.8289 24.5436 56.4112 25.6786C56.9982 26.6829 57.8761 27.3444 59.0003 27.6421C60.4149 27.9949 61.8653 27.7447 63.1227 27.0214C63.8756 26.5375 64.513 25.9469 65.0465 25.2297C65.0881 25.1737 65.0881 25.1737 65.1306 25.1166C65.2562 24.9422 65.3596 24.7975 65.3907 24.5837C65.3375 24.42 65.2797 24.2647 65.2149 24.1056C63.399 19.3987 63.1679 13.9298 65.5372 4.36471C66.0591 3.20663 66.6745 2.1479 67.5587 1.22602C67.5994 1.18108 67.6401 1.13614 67.6821 1.08984C68.0251 0.724284 68.4063 0.46958 68.8477 0.233318C68.8962 0.206595 68.9446 0.179873 68.9945 0.152341C69.6752 -0.158013 70.7444 -0.116013 71.4259 0.174923ZM69.1467 5.68268C68.4199 6.74225 68.1958 8.09475 68.0128 9.33916C68.0039 9.39871 67.9951 9.45827 67.986 9.51963C67.8079 10.8251 67.7738 12.1314 67.7778 13.4465C67.7785 13.6667 67.7781 13.8869 67.7774 14.1071C67.6024 17.453 67.6024 17.453 68.7306 20.3793C68.8992 20.4841 68.8992 20.4841 69.0821 20.4961C69.9389 20.0745 70.2952 18.7078 70.5825 17.87C70.8887 16.9653 71.1669 16.0582 71.3673 15.1238C71.3819 15.0566 71.3965 14.9894 71.4116 14.9201C71.5981 14.0493 71.7472 13.1791 71.8543 12.2954C71.8591 12.2563 71.8639 12.2173 71.8688 12.1771C72.1026 10.2331 72.4213 7.51747 71.3087 5.78076C71.0553 5.47772 70.7383 5.22637 70.3359 5.1788C69.8042 5.15621 69.4871 5.268 69.1467 5.68268ZM81.1927 19.4596C80.438 20.5621 80.3528 21.9576 80.5775 23.2443C80.7312 24.0213 80.9989 24.6866 81.4454 25.3428C81.4841 25.4006 81.5227 25.4584 81.5626 25.518C82.2375 25.3517 82.7947 25.0336 83.3204 24.5837C83.3551 24.5546 83.3899 24.5256 83.4257 24.4956C84.2761 23.722 84.6898 22.5321 84.7454 21.4119C84.7753 20.416 84.645 19.5064 83.9393 18.7479C83.6303 18.4628 83.3125 18.355 82.8949 18.3702C82.1894 18.4745 81.6185 18.9091 81.1927 19.4596Z" fill="#EDEEF4"></path><path d="M148.96 13.8542C149.484 14.3413 149.952 15.0493 150.01 15.7787C150.036 16.7782 149.922 17.4934 149.231 18.2593C148.696 18.7641 148.011 18.936 147.295 18.9184C146.465 18.8812 145.805 18.6804 145.225 18.0732C145.02 17.8321 144.869 17.5642 144.722 17.2856C144.58 17.0211 144.416 16.7798 144.141 16.6425C143.367 16.5569 142.654 16.844 142.031 17.2849C141.783 17.485 141.556 17.7053 141.328 17.9272C141.287 17.9642 141.247 18.0013 141.205 18.0394C140.075 19.0907 139.336 20.6101 138.633 21.9564C138.584 22.0493 138.584 22.0493 138.535 22.144C137.995 23.1819 137.514 24.2417 137.043 25.3119C136.863 25.7224 136.679 26.1315 136.494 26.5403C136.307 26.9546 136.121 27.3692 135.937 27.7852C135.855 27.9718 135.773 28.1583 135.69 28.3448C135.651 28.4341 135.612 28.5235 135.573 28.613C135.363 29.0914 135.144 29.5621 134.9 30.0241C134.879 30.0643 134.858 30.1045 134.836 30.1459C134.497 30.7781 134.074 31.4181 133.359 31.6498C132.9 31.6969 132.444 31.7164 132.07 31.4163C131.228 30.6299 130.889 29.5012 130.588 28.4231C130.57 28.361 130.553 28.2989 130.535 28.2349C130.313 27.4272 130.133 26.6094 129.95 25.7922C129.897 25.5551 129.844 25.318 129.79 25.081C129.757 24.9353 129.724 24.7895 129.692 24.6436C129.592 24.2048 129.468 23.7818 129.316 23.3579C129.299 23.3932 129.282 23.4286 129.265 23.4651C128.499 25.0609 127.565 26.5288 126.387 27.8542C126.361 27.8834 126.335 27.9127 126.309 27.9428C124.566 29.9182 122.19 31.3684 119.531 31.6498C119.23 31.6677 118.929 31.6691 118.627 31.6683C118.492 31.6681 118.357 31.6695 118.222 31.6709C117.428 31.6744 116.645 31.5808 115.891 31.3177C115.848 31.3029 115.805 31.2881 115.76 31.2729C115.072 31.0272 114.449 30.6818 113.906 30.19C113.853 30.1426 113.8 30.0953 113.746 30.0465C112.443 28.8199 111.925 27.0334 111.848 25.2904C111.768 22.1539 112.619 19.1288 114.787 16.799C115.908 15.6294 117.46 14.7009 119.116 14.6375C120.467 14.6179 121.562 14.9058 122.578 15.825C122.627 15.8687 122.675 15.9125 122.725 15.9575C123.597 16.782 124.388 18.0825 124.463 19.3077C124.488 20.9852 124.156 22.324 122.988 23.5914C121.776 24.8195 120.068 25.4511 118.484 26.033C117.612 26.2971 117.612 26.2971 116.953 26.8615C116.959 27.1799 117.037 27.3815 117.246 27.6206C118.241 28.3472 119.529 28.5066 120.728 28.3627C122.775 28.0466 124.433 26.6032 125.625 24.9929C125.65 24.9595 125.675 24.9261 125.701 24.8916C126.389 23.9717 126.922 22.9786 127.441 21.9564C127.464 21.9129 127.486 21.8694 127.509 21.8246C128.16 20.5448 128.607 19.1557 128.98 17.7728C129.234 16.8402 129.603 15.9417 130.419 15.3579C130.74 15.177 131.165 15.0698 131.526 15.1669C131.858 15.3501 131.967 15.7782 132.074 16.1206C132.408 17.3989 132.522 18.7329 132.677 20.0419C132.866 22.4927 132.866 22.4927 133.887 24.6425C134.024 24.7439 134.122 24.7595 134.29 24.7958C134.49 24.7559 134.517 24.7379 134.641 24.5878C134.797 24.3511 134.921 24.1025 135.042 23.8465C135.062 23.8032 135.082 23.7599 135.103 23.7153C135.314 23.2624 135.502 22.8012 135.689 22.3381C136.691 19.8546 137.802 17.3132 139.687 15.3579C139.717 15.3271 139.746 15.2964 139.775 15.2647C142.016 12.8992 146.157 11.5855 148.96 13.8542ZM116.715 18.7922C116.261 19.3028 116.011 19.9025 115.84 20.5549C115.821 20.6244 115.802 20.6939 115.783 20.7655C115.547 21.8336 115.396 23.6606 115.957 24.6425C117.081 24.5317 118.233 24.0023 119.062 23.2411C119.143 23.1691 119.143 23.1691 119.225 23.0958C119.916 22.4456 120.401 21.6702 120.435 20.7062C120.441 19.9575 120.275 19.1984 119.747 18.6352C118.869 17.8318 117.549 18.0135 116.715 18.7922Z" fill="#EDEEF4"></path><path d="M22.3864 3.15286C24.0466 4.6825 24.0348 7.99609 24.1223 10.0995C24.3097 15.0976 24.2448 20.5314 21.9726 25.1091C21.9475 25.1599 21.9223 25.2108 21.8964 25.2632C21.5561 25.9447 21.1877 26.5927 20.7421 27.2113C20.6995 27.2709 20.6569 27.3305 20.6131 27.3919C18.9476 29.6607 16.7148 31.2218 13.9453 31.8244C13.9018 31.834 13.8583 31.8437 13.8135 31.8536C10.8037 32.485 7.31138 31.843 4.74376 30.1761C4.34366 29.905 3.98658 29.5827 3.63277 29.255C3.58345 29.21 3.53413 29.165 3.48331 29.1186C2.57766 28.2562 1.93219 27.1658 1.40621 26.0434C1.37562 25.9789 1.34503 25.9145 1.31351 25.8481C0.335167 23.6871 -0.00538056 21.1972 -0.0119447 18.8433C-0.0121103 18.802 -0.0122764 18.7607 -0.0124471 18.7182C-0.0133186 18.4986 -0.0138629 18.2791 -0.014119 18.0595C-0.014373 17.8828 -0.0151766 17.7062 -0.0165223 17.5295C-0.0283119 15.9475 0.0572975 14.3817 0.307574 12.8171C0.313547 12.7788 0.31952 12.7406 0.325674 12.7012C0.691784 10.365 1.16385 7.81698 2.16793 5.66381C2.19761 5.59922 2.22729 5.53464 2.25788 5.46809C2.74803 4.48189 3.52824 3.85962 4.57027 3.50322C5.16353 3.31664 5.79653 3.13964 6.40865 3.33169C6.76189 3.59153 6.92882 3.83325 7.03121 4.26235C7.24228 5.66355 6.85051 7.12459 6.60274 8.49957C6.40073 9.62213 6.20337 10.7441 6.04633 11.8739C6.03747 11.9373 6.03747 11.9373 6.02842 12.002C5.90331 12.9035 5.81164 13.8075 5.74214 14.7149C5.73792 14.7699 5.7337 14.825 5.72936 14.8817C5.44317 18.8875 5.2746 24.2367 8.01723 27.4745C8.05923 27.5225 8.10122 27.5705 8.14449 27.62C8.17682 27.6572 8.20914 27.6944 8.24245 27.7327C9.10044 28.6513 10.4292 29.1923 11.6719 29.2623C13.4026 29.3216 14.9877 28.9196 16.289 27.7368C16.3332 27.6975 16.3774 27.6582 16.4229 27.6177C18.5522 25.6192 19.1762 22.3032 19.5813 19.547C19.5903 19.4857 19.5994 19.4243 19.6088 19.3611C19.7594 18.2875 19.8288 17.2182 19.8266 16.1346C19.8266 16.0473 19.8266 16.0473 19.8266 15.9582C19.8229 14.2368 19.5009 12.681 18.9246 11.0635C18.1988 9.01975 17.5891 6.92771 18.5378 4.84401C19.009 3.93541 19.6842 3.30995 20.625 2.91928C21.235 2.75469 21.8591 2.80967 22.3864 3.15286Z" fill="#EDEEF4"></path><path d="M57.136 1.72387C57.6472 2.13314 57.9466 2.70958 58.0353 3.35183C58.1416 4.51723 57.8512 5.6172 57.1289 6.53979C56.58 7.18347 55.9572 7.5924 55.1031 7.66776C54.3185 7.69267 53.6333 7.50806 53.0466 6.97661C52.4742 6.37233 52.2764 5.53849 52.2437 4.72957C52.2873 3.60511 52.691 2.62975 53.5144 1.84636C54.571 0.962755 56.0213 0.923949 57.136 1.72387Z" fill="#EDEEF4"></path></g><defs><clipPath id="clip0_2114_4595"><rect width="150" height="32" fill="white"></rect></clipPath></defs></svg>